<svg width="33" height="32" viewBox="0 0 33 32" fill="none" xmlns="http://www.w3.org/2000/svg">
<path d="M18.7949 13.1562C18.073 13.1562 17.5137 13.7156 17.5137 14.4062C17.5137 15.0969 18.073 15.6562 18.7949 15.6562C19.4543 15.6562 20.0137 15.0969 20.0137 14.4062C20.0137 13.7156 19.4543 13.1562 18.7949 13.1562ZM10.0449 13.1562C9.32305 13.1562 8.76367 13.7156 8.76367 14.4062C8.76367 15.0969 9.32305 15.6562 10.0449 15.6562C10.7043 15.6562 11.2637 15.0969 11.2637 14.4062C11.2637 13.7156 10.7043 13.1562 10.0449 13.1562Z" fill="white"/>
<path d="M28.8262 10.7812C27.3231 8.71868 25.2231 7.34056 22.92 6.71868V6.72181C22.3856 6.12806 21.7825 5.58118 21.1075 5.09368C15.9919 1.37493 8.81062 2.50931 5.07624 7.62493C2.06687 11.7812 2.19499 17.3718 5.26374 21.3437L5.28874 25.4874C5.28874 25.5874 5.30437 25.6874 5.33562 25.7812C5.50124 26.3093 6.06374 26.5999 6.58874 26.4343L10.545 25.1874C11.5919 25.5593 12.6731 25.7718 13.7481 25.8312L13.7325 25.8437C16.5169 27.8718 20.1669 28.4812 23.5137 27.3749L27.4856 28.6687C27.5856 28.6999 27.6887 28.7187 27.795 28.7187C28.3481 28.7187 28.795 28.2718 28.795 27.7187V23.5312C31.5481 19.7937 31.62 14.6281 28.8262 10.7812ZM10.9825 22.9687L10.6075 22.8124L7.51374 23.7812L7.48249 20.5312L7.23249 20.2499C4.58874 17.0249 4.41374 12.3781 6.88874 8.96868C9.90124 4.83743 15.6762 3.92493 19.795 6.90618C23.9262 9.90931 24.8419 15.6749 21.8575 19.7812C19.3544 23.2156 14.8731 24.4843 10.9825 22.9687ZM26.7637 22.4374L26.5137 22.7499L26.545 25.9999L23.4825 24.9687L23.1075 25.1249C21.3575 25.7749 19.4919 25.8281 17.7637 25.3437L17.7575 25.3406C20.0669 24.6312 22.1606 23.1937 23.67 21.1249C26.0575 17.8343 26.445 13.6999 25.0575 10.1749L25.0762 10.1874C25.795 10.7031 26.4544 11.3468 27.0137 12.1249C29.2825 15.2374 29.1544 19.4749 26.7637 22.4374Z" fill="white"/>
<path d="M14.4199 13.1562C13.698 13.1562 13.1387 13.7156 13.1387 14.4062C13.1387 15.0969 13.698 15.6562 14.4199 15.6562C15.0793 15.6562 15.6387 15.0969 15.6387 14.4062C15.6387 13.7156 15.0793 13.1562 14.4199 13.1562Z" fill="white"/>
</svg>
