<svg width="130" height="48" viewBox="0 0 130 48" fill="none" xmlns="http://www.w3.org/2000/svg">
<path d="M116.28 5.78467H116.744V6.05691C116.667 6.2384 116.496 6.32915 116.231 6.32915L116.165 5.98885C116.231 5.8981 116.269 5.83004 116.28 5.78467ZM111.945 6.53333C112.287 6.53333 112.733 6.71482 113.285 7.07781C113.837 7.12318 114.168 7.14587 114.278 7.14587L115.916 6.87363H116.115C116.071 7.07781 116.17 7.23662 116.413 7.35005C116.909 7.12318 117.77 7.00975 118.995 7.00975H119.326C119.987 7.00975 120.412 7.21393 120.6 7.62229C120.754 7.71304 120.898 7.75841 121.03 7.75841C121.813 7.75841 122.387 7.55423 122.751 7.14587C122.839 7.14587 122.884 7.12318 122.884 7.07781C124.13 7.07781 124.897 7.32736 125.184 7.82647C125.173 7.90588 125.686 7.99662 126.723 8.09871L126.756 8.23483L126.74 8.30289C126.718 8.41633 126.519 8.52976 126.144 8.64319L126.127 8.71125C126.105 8.81334 126.773 8.99484 128.13 9.25574C128.472 9.42589 129.068 9.53932 129.917 9.59604L130 9.80022C129.658 9.93634 129.272 10.0044 128.841 10.0044L126.69 9.80022C125.697 9.80022 125.063 10.0044 124.787 10.4128C124.776 10.4581 124.748 10.4808 124.704 10.4808H123.777C123.17 10.6623 122.845 10.7531 122.801 10.7531L122.784 11.0934L122.768 11.1614C122.735 11.1614 122.558 11.1841 122.238 11.2295C120.341 11.1841 119.171 11.1614 118.73 11.1614C118.41 11.2408 118.228 11.3769 118.184 11.5698H117.985C117.61 11.5698 117.02 11.5471 116.214 11.5017L116.049 11.9781C116.115 12.2958 116.143 12.4772 116.132 12.5226C115.447 14.3829 114.874 15.4719 114.41 15.7895C113.77 16.4928 113.368 17.2641 113.202 18.1036L112.805 19.3967C113.114 19.8958 113.677 20.1454 114.493 20.1454C114.901 20.1454 115.271 19.9639 115.602 19.6009H115.801C116.076 19.6009 116.413 19.6689 116.81 19.8051L117.224 19.737H117.422C117.676 20.2815 118.283 20.5537 119.243 20.5537L119.276 20.6898L119.243 20.894C119.055 20.894 118.901 21.0075 118.779 21.2343C119.96 21.5519 121.212 21.7788 122.536 21.9149L122.569 22.051C122.547 22.1758 122.31 22.2666 121.858 22.3233C121.46 22.3233 120.616 22.2552 119.326 22.1191C119.182 22.1191 118.989 22.1872 118.746 22.3233H118.151C117.963 22.3233 117.709 22.4821 117.389 22.7997H116.727C116.518 22.7997 116.132 22.8678 115.569 23.0039L115.552 23.0719L115.635 23.2761L115.618 23.3442C115.607 23.4349 115.558 23.4803 115.47 23.4803C113.815 23.4349 112.8 23.4122 112.424 23.4122C112.281 23.7299 111.917 23.8887 111.332 23.8887C111.321 23.9454 110.836 24.1723 109.876 24.5693L108.668 26.543C108.37 26.8493 108.011 27.0988 107.592 27.2917C107.184 27.995 106.941 28.5168 106.864 28.8571L106.831 29.0612L107.145 29.1293H107.476C108.138 28.7209 108.888 28.5168 109.727 28.5168C110.025 28.7777 110.168 28.9365 110.157 28.9932C112.485 28.4487 113.754 28.1765 113.964 28.1765H114.096C114.57 28.1765 114.94 28.1991 115.205 28.2445C115.536 28.1991 115.938 28.1765 116.413 28.1765H116.744C116.953 28.1765 117.373 28.3806 118.002 28.789H118.2C119.259 28.789 120.109 28.5394 120.749 28.0403H120.881C122.724 28.0403 123.717 28.2445 123.86 28.6529C123.827 28.8344 124.505 28.9705 125.896 29.0612L125.929 29.1974L125.912 29.2654L125.316 29.6057L125.217 29.7418L125.333 29.8099C125.885 29.8099 127.021 29.9914 128.742 30.3544C129.36 30.3544 129.652 30.4224 129.619 30.5586L129.603 30.6266C129.581 30.7627 129.283 30.8308 128.709 30.8308H126.922C126.569 30.8308 126.111 30.8081 125.548 30.7627C125.383 30.8535 125.239 30.8989 125.118 30.8989H124.522C124.158 30.8989 123.838 31.0577 123.562 31.3753C123.397 31.466 123.253 31.5114 123.132 31.5114C122.591 31.466 122.31 31.4433 122.288 31.4433C121.626 31.5795 121.185 31.6929 120.964 31.7836C121.019 31.9311 121.036 32.0672 121.014 32.192L120.385 32.3281C120.098 32.3281 119.728 32.3054 119.276 32.2601C116.418 32.4189 114.979 32.555 114.957 32.6684C114.912 32.8499 114.846 32.9407 114.758 32.9407L110.124 33.281C108.855 33.4511 108.199 33.6326 108.155 33.8255C108.067 33.8935 107.614 33.9616 106.798 34.0296C106.665 34.1658 106.494 34.2338 106.285 34.2338H106.219C106.064 34.2338 105.871 34.2111 105.639 34.1658C104.613 34.6649 103.681 34.9144 102.842 34.9144C102.898 34.6422 102.771 34.5061 102.462 34.5061C102.396 34.8123 101.69 35.7652 100.344 37.3646C99.9684 38.0452 99.7202 38.3855 99.5988 38.3855H99.4664L99.483 38.3174C99.6043 37.7162 100.178 36.6499 101.204 35.1186C101.458 34.5287 101.607 34.1431 101.651 33.9616C100.15 33.5305 99.4333 33.1449 99.4995 32.8045L99.6153 32.2601L99.7477 31.9198C99.0416 31.7383 98.7051 31.5568 98.7382 31.3753C99.1906 31.1257 99.4223 30.9669 99.4333 30.8989L99.4499 30.8308C99.1078 30.706 98.4955 30.5699 97.6129 30.4224L97.5136 30.2183L97.5467 30.0821C97.9659 29.9914 98.3576 29.9233 98.7217 29.878C98.9423 29.9233 99.0692 29.946 99.1023 29.946C100.029 29.946 101.331 29.6284 103.008 28.9932C103.03 28.8571 103.416 28.1538 104.166 26.8833C104.365 26.3842 104.828 25.5221 105.557 24.297L105.573 24.229C105.595 24.1496 105.573 23.9454 105.507 23.6164C105.529 23.5257 105.639 23.2988 105.838 22.9358C105.65 22.9358 105.501 22.4821 105.391 21.5746H105.06C104.994 21.5746 104.944 21.5066 104.911 21.3704L104.944 21.1663C105.121 21.1663 105.242 21.0301 105.308 20.7579C104.845 20.6672 104.343 20.6218 103.802 20.6218H103.67C103.582 20.6218 103.549 20.5764 103.571 20.4857L103.587 20.4176C103.62 20.2588 104.106 20.1454 105.044 20.0773C106.025 19.7937 106.527 19.6122 106.549 19.5328C106.384 19.4874 106.323 19.3513 106.367 19.1245L106.847 19.0564C107.222 19.1471 107.498 19.1925 107.675 19.1925C108.028 19.1925 108.397 18.2624 108.784 16.4021C109.379 15.4152 109.721 14.7119 109.81 14.2922L110.008 13.3393C110.086 12.9764 110.389 12.5907 110.918 12.1823C110.245 11.7172 109.815 11.3316 109.628 11.0253C109.628 10.9572 109.258 10.7077 108.519 10.2766C108.431 10.1065 108.397 9.94768 108.42 9.80022L108.502 9.45992L108.668 8.9835C108.403 8.9835 108.193 8.82469 108.039 8.50707L108.055 8.37095C108.431 8.29155 108.629 8.2008 108.651 8.09871C108.486 7.91722 107.929 7.73573 106.98 7.55423L106.963 7.28199C107.151 7.19124 107.338 7.14587 107.526 7.14587H109.446C110.946 6.73751 111.779 6.53333 111.945 6.53333ZM105.656 7.55423H105.921C106.042 7.59961 106.075 7.73573 106.02 7.96259V8.03065L105.656 8.16677C105.49 8.1214 105.43 7.98528 105.474 7.75841C105.562 7.75841 105.623 7.69035 105.656 7.55423ZM106.831 9.18768C107.316 9.18768 107.52 9.36917 107.443 9.73216C107.178 10.0498 106.903 10.2086 106.616 10.2086C106.417 10.1405 106.34 9.98171 106.384 9.73216L106.45 9.45992C106.461 9.39186 106.588 9.30111 106.831 9.18768ZM114.874 14.7686L114.857 14.9047C114.945 14.9047 114.995 14.8594 115.006 14.7686H114.874ZM105.01 19.2606H105.341L105.408 19.6009C105.33 19.7824 105.181 19.8731 104.961 19.8731L104.812 19.6009L104.828 19.5328C104.939 19.4194 104.999 19.3286 105.01 19.2606ZM102.511 20.826C102.666 20.894 102.738 20.9621 102.727 21.0301L102.66 21.3704C102.495 21.4158 102.401 21.4385 102.379 21.4385C102.214 21.3704 102.142 21.3024 102.164 21.2343L102.197 21.0301C102.219 20.9167 102.324 20.8486 102.511 20.826ZM104.084 22.1872C104.393 22.1872 104.519 22.3233 104.464 22.5955L104.431 22.7316C104.266 23.0039 104.062 23.14 103.819 23.14H103.554C103.477 23.14 103.416 23.0039 103.372 22.7316C103.526 22.3687 103.764 22.1872 104.084 22.1872ZM96.14 30.4905H96.4048C96.5261 30.5359 96.5648 30.672 96.5206 30.8989L96.4875 31.035L96.14 31.103H96.0738C96.0076 31.103 95.9635 31.0123 95.9414 30.8308C96.0517 30.6833 96.1179 30.5699 96.14 30.4905ZM97.4474 32.192H97.646C98.0873 32.192 98.2804 32.3281 98.2252 32.6004C97.9384 33.0541 97.646 33.281 97.3481 33.281C97.1164 33.281 97.0061 33.0768 97.0171 32.6684C97.1385 32.3962 97.2819 32.2374 97.4474 32.192Z" fill="white"/>
<path d="M96.3723 5.8877H96.5709C97.2108 5.8877 97.8672 5.93307 98.5402 6.02382L98.6726 5.95576C100.493 6.18262 101.74 6.36412 102.413 6.50024C104.189 6.99934 105.441 7.65726 106.169 8.47398C106.876 8.66682 107.212 8.84831 107.179 9.01846C107.951 10.4364 108.2 11.7976 107.924 13.1021L107.857 13.4424C107.515 15.1098 106.263 16.9021 104.101 18.8191C103.549 19.2842 102.584 20.0102 101.205 20.997C100.322 21.9953 99.4615 22.6305 98.623 22.9027C97.5418 23.7648 96.8577 24.1959 96.5709 24.1959C96.3944 24.1959 95.6662 24.6042 94.3864 25.421H94.3202L94.3036 25.5571C95.9365 25.9314 97.7183 27.0204 99.649 28.824C99.8697 29.2437 99.969 29.4932 99.9469 29.5726C99.8476 30.0944 100.548 30.6616 102.049 31.2741C102.534 31.2741 102.871 31.4556 103.058 31.8186C103.952 32.8509 104.377 33.4634 104.332 33.6562C104.222 34.1894 104.52 34.6885 105.226 35.1536C105.502 35.5052 105.612 35.8228 105.557 36.1064H105.491C105.447 36.1064 105.199 36.0157 104.746 35.8342L104.73 35.9703C105.259 36.6509 105.833 37.7172 106.451 39.1691C106.749 39.43 106.87 39.6796 106.815 39.9178L106.798 39.9858H106.6C106.125 39.5208 105.408 38.636 104.448 37.3315C103.886 36.5601 103.169 36.1745 102.297 36.1745C101.381 35.2216 100.774 34.7452 100.477 34.7452L100.443 34.8813C100.432 34.9267 100.449 34.9494 100.493 34.9494C100.427 35.0855 100.372 35.1536 100.328 35.1536C100.008 35.0174 99.6711 34.7225 99.3181 34.2688C97.6742 32.7488 96.5488 31.8867 95.942 31.6825L95.4455 31.8186C95.2249 31.8186 94.3367 31.2061 92.7811 29.981C92.2295 29.7087 91.3854 29.2096 90.2491 28.4837C89.7305 28.4837 89.2671 28.2795 88.8589 27.8711H88.7927C88.7265 27.8711 88.4893 28.3702 88.0811 29.3684C87.6839 29.6974 87.1819 30.5368 86.5751 31.8867L84.7382 33.9965C84.3189 34.7792 84.0376 35.5052 83.8941 36.1745L83.9438 36.8551L83.9272 36.9912C83.8941 37.1273 83.4914 37.8987 82.7191 39.3052C82.5978 39.8951 82.173 40.4623 81.4448 41.0067L80.2037 43.4569H80.0051C80.0161 43.0032 80.0326 42.7082 80.0547 42.5721H79.9223C79.0507 44.2509 78.2343 45.5441 77.473 46.4515C77.3958 46.8145 77.1696 47.1548 76.7945 47.4724H76.6621C76.8276 46.6784 77.4896 45.2945 78.648 43.3208C78.8797 42.5948 79.0728 41.8688 79.2272 41.1429L79.2438 41.0748C79.2659 40.9727 79.2107 40.7005 79.0783 40.2581C79.4203 39.6682 79.7844 38.6473 80.1706 37.1954H80.1044C80.0382 37.1954 79.9609 37.2634 79.8727 37.3995C79.7954 37.3542 79.7348 37.3315 79.6906 37.3315L79.7237 37.1273L81.0973 33.9965L83.2322 29.7768C83.1549 29.4138 83.1053 29.2323 83.0832 29.2323C83.8666 27.5422 84.5727 26.249 85.2015 25.3529C85.2236 25.2508 85.2677 25.1601 85.3339 25.0807C84.7602 24.8084 84.4458 24.5135 84.3906 24.1959L84.4568 23.8556C84.5892 23.8556 84.7216 23.7421 84.854 23.5153C84.9202 23.2203 84.6609 22.88 84.0762 22.4944C83.9769 22.4944 83.9052 22.4036 83.861 22.2221L83.9107 22.018H84.3741L84.3906 21.9499C84.3796 21.5642 84.181 21.2239 83.7948 20.929C83.5852 20.895 83.5135 20.7135 83.5797 20.3845H83.6459C83.8335 20.3845 84.1258 20.4753 84.523 20.6567L85.1188 20.3164C84.8871 19.7266 84.7878 19.3636 84.8209 19.2275C84.843 19.1367 84.8926 19.0914 84.9698 19.0914C85.2567 19.2275 85.4663 19.2955 85.5987 19.2955L85.6153 19.2275C85.6484 19.0687 85.4498 18.6376 85.0195 17.9343C84.9643 17.7869 84.9478 17.6508 84.9698 17.526L84.9864 17.4579C85.0085 17.3672 85.0581 17.3218 85.1353 17.3218L86.5089 18.7511C87.1268 19.3409 87.5736 19.6358 87.8494 19.6358V19.5678C87.9377 19.1594 88.23 18.6149 88.7265 17.9343L88.8093 17.526C89.0851 16.2102 89.5981 15.3254 90.3484 14.8716C90.4918 14.7469 90.7621 14.4066 91.1593 13.8507C91.4572 13.8507 91.893 13.3516 92.4667 12.3534L93.6582 11.3325C94.1437 11.4686 94.4415 11.5367 94.5519 11.5367C94.916 10.8107 95.2304 10.4477 95.4952 10.4477L95.5448 10.5838L95.3628 11.4006C95.6055 11.4006 95.942 10.9695 96.3723 10.1074C94.9601 10.0167 94.1326 9.94862 93.8899 9.90324C93.4596 9.94862 93.0349 9.9713 92.6156 9.9713H92.417C91.2475 9.56294 90.6076 9.35876 90.4973 9.35876H90.2325L87.386 9.69906C87.2978 9.69906 87.2592 9.65369 87.2702 9.56294C87.2923 9.49488 87.6398 9.31339 88.3128 9.01846L88.3459 8.88234C88.2025 8.88234 88.0977 8.85966 88.0315 8.81428C87.546 8.99578 86.5972 9.19996 85.185 9.42682C83.4308 10.1982 82.2502 10.5838 81.6434 10.5838L81.5938 10.4477C81.6269 10.3229 82.8791 9.71041 85.3505 8.6101C86.9613 8.05428 88.2521 7.69129 89.223 7.52114C89.5981 7.52114 90.2656 7.27159 91.2255 6.77248C91.3137 6.7271 91.4296 6.70442 91.573 6.70442H91.7054C92.6542 6.70442 94.0002 6.59098 95.7434 6.36412L95.76 6.29606C95.5834 6.29606 95.4952 6.20531 95.4952 6.02382C95.7048 5.93307 95.9972 5.8877 96.3723 5.8877ZM96.1406 6.09188L96.1241 6.15994C96.1682 6.15994 96.2289 6.18262 96.3061 6.228L96.3226 6.15994L96.2068 6.09188H96.1406ZM87.7667 9.42682L87.7501 9.49488H87.9487L87.9653 9.42682H87.7667ZM95.3297 14.4633C95.3076 14.5767 95.2028 15.1892 95.0153 16.3009C94.6512 17.3558 94.0168 18.3994 93.1121 19.4317C92.8804 19.7266 92.6708 20.1123 92.4832 20.5887C92.6818 20.4639 93.3714 20.3278 94.5519 20.1803C95.953 19.6132 97.1722 18.9326 98.2093 18.1385C99.0919 17.1403 99.8807 16.6412 100.576 16.6412C100.973 16.6412 101.596 16.1875 102.446 15.28C102.975 14.6221 103.312 13.9642 103.455 13.3063L103.472 13.2382C103.682 12.2059 103.135 11.4119 101.834 10.8561C101.194 10.0847 100.46 9.69906 99.6325 9.69906H97.9114C97.2053 9.69906 96.7474 10.1982 96.5378 11.1964C96.2951 11.7522 95.8924 12.8412 95.3297 14.4633ZM83.8114 16.7093H84.2086V17.0496C84.1313 17.1857 83.9824 17.2537 83.7617 17.2537C83.6735 17.2537 83.6459 17.1857 83.679 17.0496L83.8114 16.7093ZM94.0554 17.7982C94.0444 17.8436 94.0057 17.9117 93.9395 18.0024H94.0057L94.105 17.8663L94.1216 17.7982H94.0554ZM83.166 18.8872H83.6294C83.839 19.1254 83.9217 19.3523 83.8776 19.5678L83.861 19.7039C83.5521 19.7947 83.3425 19.84 83.2322 19.84H82.9012C82.835 19.5111 82.8129 19.3069 82.835 19.2275C83.0225 19.1367 83.1329 19.0233 83.166 18.8872ZM82.2558 20.0442H82.5206C82.5867 20.0442 82.6419 20.1123 82.686 20.2484L82.6198 20.5887L82.2723 20.6567C82.2944 20.566 82.2392 20.5206 82.1068 20.5206L82.1234 20.3845L82.2558 20.0442ZM92.7976 20.6567L92.7811 20.7248H92.9797C93.1452 20.6341 93.2886 20.5887 93.41 20.5887L93.4265 20.5206H93.2941C93.1397 20.6114 92.9742 20.6567 92.7976 20.6567ZM82.4875 22.1541C82.8515 22.3129 83.006 22.5397 82.9508 22.8347L82.9343 22.9027C82.9122 23.0162 82.7136 23.1069 82.3385 23.175H82.0737C82.0075 23.175 81.9413 23.0842 81.8751 22.9027L81.9413 22.5624C82.173 22.2902 82.3551 22.1541 82.4875 22.1541ZM105.243 35.698L105.21 35.8342H105.342L105.375 35.698H105.243Z" fill="white"/>
<path d="M86.5583 0.918457H86.6742L86.6907 1.22473L86.6742 1.27577C86.6521 1.36652 86.5969 1.41189 86.5087 1.41189H86.2108L86.2273 1.10562L86.2604 0.986517L86.5583 0.918457ZM84.3407 1.88831C84.7379 1.88831 84.9255 1.9507 84.9034 2.07548C84.8813 2.18891 84.8869 2.24563 84.92 2.24563C84.7765 2.65399 84.6166 2.85817 84.44 2.85817C84.2083 2.76742 84.0594 2.60862 83.9932 2.38175C84.1366 2.05279 84.2525 1.88831 84.3407 1.88831ZM86.6411 2.24563L86.608 2.38175L85.8964 4.74684C85.7198 6.56178 85.7309 7.46925 85.9295 7.46925C85.9515 7.94567 85.8688 8.81344 85.6812 10.0725C85.1185 11.4791 84.771 12.4944 84.6386 13.1182C84.418 13.9803 84.2911 14.4851 84.258 14.6326C84.3683 15.438 84.3904 16.0051 84.3242 16.3341L84.2249 16.8105C84.1697 17.0714 83.9215 17.4174 83.4802 17.8484L83.4471 18.0186C83.3809 18.3248 83.3092 19.1359 83.2319 20.4517C83.2319 20.6332 83.0664 21.6258 82.7355 23.4294C82.4817 24.2914 82.3272 24.8586 82.2721 25.1309C82.261 25.1989 82.4045 25.3577 82.7024 25.6073V25.9136L83.5795 26.1518C83.7339 26.2652 84.2856 26.3559 85.2344 26.424L86.9224 26.6282C87.2975 26.855 85.9019 27.0592 82.7355 27.2407L83.8112 27.4279L84.8041 27.581C82.3107 27.9213 81.0364 28.2333 80.9812 28.5169L80.8157 29.2485C80.6282 30.1787 80.6502 30.9273 80.8819 31.4945C80.915 31.5625 80.9205 31.6646 80.8985 31.8008L80.7992 32.2772C80.744 32.5154 80.6061 32.9805 80.3855 33.6724C80.2751 34.387 80.1979 34.8351 80.1538 35.0166C80.1427 35.1187 79.9441 35.4193 79.558 35.9184C79.4587 36.599 79.3704 37.1265 79.2932 37.5008L79.1277 38.3515C79.1056 38.4309 79.056 38.4706 78.9788 38.4706H78.9126C78.8464 38.4706 78.8078 38.2892 78.7967 37.9262L78.6478 37.8071C78.5375 37.9545 78.4657 38.1133 78.4326 38.2835C78.3885 38.4536 78.3278 38.8166 78.2506 39.3724C77.39 41.2214 76.9322 42.2934 76.877 42.5883L76.7446 42.6563H76.6784C76.6012 42.6563 76.5681 42.6166 76.5791 42.5372C76.7005 41.9701 76.9929 40.9775 77.4562 39.5596C77.5224 39.208 77.5776 38.4593 77.6217 37.3136C77.71 36.8599 77.5941 36.4572 77.2742 36.1056C77.4838 33.9617 77.5059 32.8897 77.3404 32.8897C77.3404 32.9124 77.3018 32.9918 77.2245 33.1279H77.1087C76.9653 33.0826 76.9322 32.7593 77.0094 32.1581L77.2411 31.0691C77.3514 30.5473 77.4893 29.9801 77.6548 29.3676L77.721 28.5169C77.0149 28.8004 76.5019 28.9422 76.1819 28.9422H76.0661C76.1102 28.7607 75.9833 28.6416 75.6855 28.5849C74.7697 29.0727 73.5285 29.3166 71.9619 29.3166H71.7964C71.4102 30.0085 71.1841 30.5133 71.1179 30.8309C71.0958 30.899 71.0848 31.1428 71.0848 31.5625C70.2352 32.6969 69.6781 33.5646 69.4133 34.1658C68.3321 34.9712 67.7528 35.5554 67.6756 35.9184C67.3777 36.6897 67.0633 37.0754 66.7323 37.0754L66.7654 36.8883L66.8316 36.2927H66.7158C65.7669 37.7787 65.127 38.8507 64.796 39.5086C64.6857 39.5426 64.4595 39.9056 64.1175 40.5975L63.9686 40.6486H63.8527L63.9024 40.4104C63.9134 40.3423 64.4044 39.2307 65.3753 37.0754C65.8938 35.8844 66.1696 35.1981 66.2027 35.0166L66.2193 34.9485C66.2413 34.8691 66.2358 34.6082 66.2027 34.1658C66.8647 32.9067 67.317 31.9766 67.5598 31.3754L67.5763 31.2563H67.5101C67.3667 31.3357 67.2453 31.3754 67.146 31.3754C67.2343 30.9216 67.5212 30.3772 68.0066 29.7419C67.9294 29.7419 67.8963 29.7192 67.9073 29.6739L67.7749 29.7419H67.4108C66.8151 29.4584 66.451 29.3166 66.3186 29.3166H65.789C65.7007 29.3166 65.618 29.3336 65.5408 29.3676C65.3532 29.3222 65.2649 29.2598 65.276 29.1804L65.3091 29.0613C65.4635 29.0613 65.618 28.9649 65.7724 28.7721L65.8055 28.636H65.276C64.9229 28.636 64.2003 28.5792 63.108 28.4658H62.2144L62.2475 28.3467C62.2916 28.1085 63.3066 27.9667 65.2925 27.9213C66.2634 27.6604 66.7709 27.4336 66.8151 27.2407C66.8482 27.0365 67.3336 26.8948 68.2714 26.8153L68.5527 26.5771L68.5693 26.5261L68.4865 26.3389C68.5086 26.2368 69.1044 26.1177 70.2738 25.9816C70.6379 25.4258 70.8862 24.9777 71.0186 24.6374L70.9193 24.3312L70.9524 24.161C71.0296 23.8094 71.8515 22.5105 73.4182 20.2646C73.7051 19.6747 74.2733 18.7445 75.1228 17.4741C75.2662 16.7368 75.52 16.1753 75.8841 15.7896H75.8344C75.3269 16.3908 74.9242 16.6914 74.6263 16.6914C74.6042 16.612 74.5987 16.5496 74.6098 16.5042C75.6358 15.143 76.204 14.2129 76.3143 13.7138C76.4357 13.0785 76.888 12.432 77.6714 11.7741C77.881 11.7741 78.1513 11.4905 78.4823 10.9233C78.8022 10.9233 78.9953 10.7815 79.0615 10.4979C79.0063 10.3731 78.9898 10.254 79.0119 10.1406C79.045 9.9818 79.3263 9.59613 79.8559 8.98359C79.9221 8.64329 80.2696 8.38239 80.8985 8.20089C81.7701 7.2594 82.2831 6.40864 82.4376 5.64864C82.6693 5.26296 83.0995 4.82057 83.7284 4.32146C84.0925 4.4349 84.3187 4.49162 84.4069 4.49162C84.7379 3.68624 84.9972 3.28355 85.1847 3.28355H85.3006L85.2344 3.89609L85.1682 4.20236H85.3502C85.8798 2.89787 86.3101 2.24563 86.6411 2.24563ZM85.1847 10.7531L85.1351 10.9914H85.2013L85.2509 10.7531H85.1847ZM74.345 17.5422H74.5767C74.5656 17.5989 74.5877 17.6783 74.6429 17.7804C74.5215 17.9619 74.4222 18.0639 74.345 18.0866H74.1629C74.174 18.0186 74.1519 17.9392 74.0967 17.8484L74.1133 17.7293C74.1353 17.6613 74.2126 17.5989 74.345 17.5422ZM75.1724 24.9947H75.3545C76.3254 24.938 77.0094 24.7792 77.4066 24.5183C77.4176 24.4503 77.5666 24.4106 77.8534 24.3992C77.8865 24.3992 77.8975 24.4162 77.8865 24.4503C78.0961 24.4276 78.223 24.3085 78.2671 24.0929L78.3168 23.8547C78.372 23.5598 78.3775 23.3386 78.3333 23.1911C78.6643 21.9661 78.9732 20.6502 79.2601 19.2437C79.2822 19.1869 79.3042 18.9828 79.3263 18.6311C79.2711 18.6311 79.0891 18.9544 78.7802 19.601C78.5595 19.8732 78.2175 20.0774 77.7541 20.2135L76.4798 22.9359C75.8951 23.9114 75.4593 24.5977 75.1724 24.9947ZM84.0428 25.1819H84.2083C84.4842 25.1819 84.5835 25.3634 84.5062 25.7264C84.418 25.9306 84.3021 26.0213 84.1587 25.9986L83.6291 26.0327C83.6401 25.9759 83.6181 25.8965 83.5629 25.7944L83.596 25.6073C83.8498 25.3237 83.9987 25.1819 84.0428 25.1819ZM68.7182 26.3389L68.6851 26.458H68.7513L68.7844 26.3389H68.7182ZM77.1749 32.5834L77.1583 32.6515H77.2742L77.2907 32.5834H77.1749ZM79.0119 38.0453L78.9788 38.1644H79.045L79.0781 38.0453H79.0119Z" fill="white"/>
<path d="M65.6073 5.64941C66.4347 5.64941 68.1724 6.13151 70.8203 7.09569C71.7912 7.42465 72.751 8.17331 73.6998 9.34168C73.9757 9.68198 74.3122 9.85213 74.7093 9.85213C75.3382 11.0999 75.5147 12.3987 75.2389 13.7486C74.7535 15.2119 73.7164 16.7602 72.1277 18.3937C70.2962 19.9137 69.1322 20.9743 68.6358 21.5755C67.2898 22.2334 66.3906 22.7609 65.9382 23.1579C65.2983 23.2713 64.2723 23.8045 62.8601 24.7573C62.2422 25.1884 61.1114 25.4039 59.4675 25.4039C59.2799 26.266 58.6786 27.111 57.6636 27.9391C57.454 27.9391 57.1671 28.5914 56.803 29.8958L56.7699 30.117C56.8582 30.6388 56.8968 30.9281 56.8858 30.9848L56.8692 31.0529C56.108 32.6183 55.6998 33.5371 55.6446 33.8093C54.9826 34.0815 54.5523 34.7054 54.3537 35.681C54.2765 36.0666 54.0338 36.4296 53.6256 36.7699H53.4766C53.5318 36.2935 53.4491 36.0553 53.2284 36.0553C53.1291 36.5431 52.4671 37.8419 51.2425 39.9517C51.0108 40.6777 50.7846 41.0407 50.564 41.0407L50.5805 40.6834L50.6302 40.3941C50.7295 39.9064 51.1597 38.7947 51.921 37.0592L51.9541 36.9231C52.2961 35.2329 52.3403 34.3878 52.0865 34.3878C52.0644 34.3084 52.0699 34.1836 52.103 34.0135C52.4782 32.6863 52.6988 31.8696 52.765 31.5633C52.7209 31.3705 52.6602 31.2741 52.583 31.2741C52.5609 31.3648 52.5002 31.4102 52.4009 31.4102H52.252L52.3182 31.1209C52.4947 30.2815 53.256 28.5233 54.602 25.8463C54.8006 25.3812 54.9109 25.0919 54.933 24.9785C54.8668 24.9785 54.8116 24.9048 54.7675 24.7573L54.8502 24.3149L55.0654 23.6003C54.9881 23.6003 54.6737 23.4301 54.1221 23.0898L54.1552 22.9537C54.1993 22.8516 54.26 22.8006 54.3372 22.8006H55.2309C55.286 22.5397 54.6075 22.1086 53.1953 21.5074L53.2284 21.3543C53.2615 21.2635 53.3222 21.2182 53.4104 21.2182H53.7911C54.4861 21.5018 55.0268 21.6436 55.4129 21.6436H55.628C56.0804 21.6436 56.5658 20.9686 57.0844 19.6188C57.1395 19.6074 57.4871 18.8814 58.127 17.4408C58.138 17.1799 58.1601 16.9644 58.1932 16.7943L58.2594 16.505C58.9103 15.2005 59.2634 14.4292 59.3185 14.191C59.5171 14.191 59.7543 13.6351 60.0301 12.5235C60.5487 11.5593 60.9514 11.0772 61.2382 11.0772C61.2824 11.0772 61.9609 10.7653 63.2738 10.1414C64.0351 10.1414 64.5095 10.113 64.697 10.0563L64.7136 9.98825C63.522 9.79541 62.4132 9.67631 61.3872 9.63093C61.2217 9.46078 60.8852 9.26795 60.3777 9.05242C59.1972 9.14317 58.3201 9.18854 57.7463 9.18854L57.7132 9.05242L58.5738 8.47391L58.5904 8.40585L58.2263 8.32078C57.785 8.46824 57.0402 8.59302 55.9921 8.69511C55.1095 9.27362 54.2324 9.56287 53.3608 9.56287C52.9857 9.80108 52.6878 9.92019 52.4671 9.92019H52.4009C52.3016 9.92019 52.263 9.86914 52.2851 9.76705L52.3182 9.63093C56.1576 7.94077 58.3366 7.09569 58.8551 7.09569C59.6274 7.09569 60.4549 6.80644 61.3375 6.22793C61.834 6.22793 62.0878 6.20524 62.0988 6.15987L62.4463 6.22793C62.7994 6.22793 63.4669 6.25061 64.4488 6.29599C64.9784 6.20524 65.2597 6.15987 65.2928 6.15987L65.3259 6.00673C65.1273 6.00673 65.0391 5.93867 65.0611 5.80255L65.0777 5.71747L65.6073 5.64941ZM65.6569 5.87061C65.6459 5.96136 65.6845 6.00673 65.7727 6.00673L65.8058 5.87061H65.6569ZM58.1766 8.98436L58.1601 9.05242H58.309L58.3256 8.98436H58.1766ZM67.196 9.92019L67.0139 10.4306L66.6664 12.0981C66.6554 12.1435 66.6774 12.1662 66.7326 12.1662C65.9713 13.9925 65.3866 14.9056 64.9784 14.9056C64.2502 15.5975 63.6655 16.5901 63.2242 17.8832C63.1911 18.0761 63.0531 18.5071 62.8104 19.1764C64.2006 18.6773 65.2321 18.2689 65.9051 17.9513C66.7767 16.8396 67.6318 16.2838 68.4703 16.2838C69.4191 15.7847 70.0149 14.9396 70.2576 13.7486C70.4341 12.8865 70.0149 12.0471 68.9999 11.2303C69.1212 10.6065 68.5199 10.1697 67.196 9.92019ZM61.321 10.2094H61.8506V10.5668L61.834 10.6348C61.7568 10.6348 61.6465 10.6859 61.503 10.788H61.2879L61.2217 10.4306C61.2769 10.3285 61.31 10.2548 61.321 10.2094ZM51.8548 21.2182H52.2189V21.5755L52.2023 21.7116L51.8052 21.7967H51.6562L51.6893 21.2862L51.8548 21.2182ZM52.4837 23.243H52.5499C53.0243 23.2997 53.2229 23.5152 53.1457 23.8895L53.1291 24.0257C52.5995 24.1845 52.3292 24.2809 52.3182 24.3149C52.0203 24.3149 51.9045 24.1504 51.9707 23.8215L51.9872 23.7364C52.0424 23.4982 52.2079 23.3337 52.4837 23.243ZM61.7844 24.8934L61.7678 24.9785H61.8506C61.9609 24.9218 62.0381 24.8934 62.0823 24.8934L62.0988 24.8254H62.0326C61.9223 24.8707 61.8395 24.8934 61.7844 24.8934Z" fill="white"/>
<path d="M62.3131 0.527832H62.5117C62.5999 0.539175 62.6386 0.584549 62.6275 0.663952L62.5613 0.936193C62.5393 1.02694 62.4841 1.07231 62.3958 1.07231H62.0648V0.800073C62.1641 0.618579 62.2469 0.527832 62.3131 0.527832ZM59.9134 1.27649H59.9796C60.421 1.27649 60.603 1.45799 60.5258 1.82098C60.3603 2.18396 60.1451 2.36546 59.8803 2.36546H59.6818C59.5825 2.01381 59.5438 1.78694 59.5659 1.68485C59.7755 1.50336 59.8914 1.36724 59.9134 1.27649ZM60.956 2.02516H61.2208L61.2043 2.36546L61.1877 2.50158L60.8402 2.56964H60.7078C60.7299 2.46755 60.7244 2.3768 60.6913 2.2974C60.8016 2.1159 60.8898 2.02516 60.956 2.02516ZM62.3296 2.09322C62.3076 2.18396 62.3186 2.22934 62.3627 2.22934C61.6566 3.70397 61.2815 4.56607 61.2374 4.81562L61.105 5.76846C60.5754 6.81205 60.283 7.46997 60.2279 7.74221C60.0403 8.66102 59.7314 9.31894 59.3011 9.71595L59.1025 9.98819C59.0143 10.6461 58.9646 11.0091 58.9536 11.0772C58.8653 11.4742 57.8724 13.3799 55.9747 16.7942C55.9085 17.1118 55.3238 18.0193 54.2205 19.5166C54.1874 19.6754 53.895 20.0157 53.3434 20.5375C52.8469 21.4677 52.378 22.5793 51.9367 23.8725L51.887 24.6892C50.6072 27.0713 49.7467 28.7955 49.3054 29.8618C49.2833 29.9639 48.8309 30.5537 47.9483 31.6313C47.0547 34.0134 46.481 35.2839 46.2272 35.4427H46.161C46.2162 34.989 46.2658 34.6487 46.3099 34.4218L46.3596 34.1496C46.1831 34.1836 46.0893 34.229 46.0783 34.2857C45.8245 35.4994 44.8702 37.4278 43.2152 40.0708C42.9504 40.6606 42.7353 40.9556 42.5698 40.9556H42.5036L42.5367 40.8194C42.6691 40.1502 43.3421 38.6075 44.5557 36.1914L44.8867 34.5579C45.3391 33.2307 45.6038 32.3913 45.6811 32.0397C45.6921 31.9716 45.6866 31.5633 45.6645 30.8146C46.8119 28.2283 47.4794 26.4814 47.667 25.574L47.6835 25.5059H47.6173L47.4022 25.9143H47.1374L47.154 25.8462C47.2422 25.4265 47.6559 24.4964 48.3951 23.0557H48.329C47.3139 23.9859 46.4148 24.7119 45.6314 25.2337C45.5873 25.4038 44.9364 26.0844 43.6786 27.2755C43.4138 27.6385 43.1325 27.82 42.8346 27.82H42.7022C42.7353 27.6838 42.6857 27.6158 42.5533 27.6158L42.4871 27.888C42.4981 29.5555 42.4264 30.7806 42.2719 31.5633L42.123 31.6313H42.0568C41.9795 31.62 41.9244 31.0301 41.8913 29.8618C41.803 29.6689 41.7313 29.1698 41.6761 28.3644L41.5438 28.2964C41.29 28.9316 41.0252 29.2492 40.7494 29.2492L40.7163 29.1131L40.7825 28.8409C41.1024 28.1262 41.2734 27.7179 41.2955 27.6158L41.1797 27.5477C41.0362 27.6838 40.5287 28.4325 39.6571 29.7937C39.3703 30.0206 39.1662 30.134 39.0448 30.134L39.0117 29.9979L39.0779 29.6576C39.453 29.2379 39.9054 28.3531 40.435 27.0032C40.6997 26.7877 40.8652 26.5155 40.9314 26.1865L40.948 26.1185C40.97 26.0164 40.9038 25.6987 40.7494 25.1656H40.6832C40.5949 25.1656 40.5342 25.2337 40.5011 25.3698H40.3688C40.1702 25.3698 40.0874 24.3943 40.1205 22.4432H40.0543C39.9109 23.1125 39.3592 24.2695 38.3994 25.9143C37.7154 26.2319 37.2961 26.7764 37.1416 27.5477C37.0975 27.5477 37.0424 27.7065 36.9762 28.0241L36.8769 28.5006C36.921 28.9089 36.9375 29.1358 36.9265 29.1812C36.5955 29.9298 36.1156 30.7692 35.4867 31.6994C34.8799 31.8695 34.5269 32.1871 34.4276 32.6522C34.0083 33.4689 33.6608 33.8773 33.385 33.8773L33.4015 33.8092C33.4125 33.4009 33.3408 33.1967 33.1864 33.1967C32.8775 33.7412 32.1658 34.8302 31.0515 36.4636C30.7978 37.0081 30.6102 37.2803 30.4888 37.2803H30.3564L30.4061 37.0761C30.7591 36.1573 31.3329 34.9776 32.1272 33.537L32.1438 33.1286L32.1603 33.0606C32.4141 32.4707 32.5465 32.1531 32.5575 32.1077L32.5906 31.9036C32.4251 31.6313 32.3589 31.4271 32.392 31.291L32.9547 30.2021L33.0374 29.7937L33.2691 28.977L33.0374 29.1131H32.8388L32.8554 29.045C32.9436 28.6026 33.4622 27.491 34.411 25.7101C34.8082 24.6325 35.073 23.9746 35.2054 23.7363C35.0399 23.4754 34.9737 23.2713 35.0068 23.1238C35.9005 21.1387 36.5073 19.6868 36.8272 18.768C37.0699 18.042 37.1968 17.6563 37.2078 17.6109C37.1196 17.3727 37.0975 17.1459 37.1416 16.9303L37.1582 16.8623C37.2465 16.4539 37.4837 15.8414 37.8698 15.0246C37.936 14.5255 38.0022 14.0945 38.0684 13.7315L38.1512 13.3231C38.2063 13.0622 38.4932 12.7446 39.0117 12.3703C40.0267 11.304 40.7053 10.4873 41.0473 9.92013H40.9811C40.6942 9.92013 40.5618 9.71595 40.5839 9.30759L40.617 9.10341C40.6391 9.01267 40.8156 8.92192 41.1466 8.83117C41.4555 8.83117 41.5934 9.10341 41.5603 9.64789C41.9465 9.73864 42.1616 9.78401 42.2057 9.78401C42.6139 9.10341 43.0111 8.67236 43.3973 8.49087L43.5959 8.76311C43.8717 8.03714 44.0372 7.67415 44.0923 7.67415C44.1254 7.5834 44.1806 7.53803 44.2578 7.53803H44.4564L44.4399 7.94639C44.2413 8.68371 44.131 9.09207 44.1089 9.17147C43.9434 9.97685 43.9544 11.4288 44.142 13.5273C44.0537 13.947 43.9213 14.3781 43.7448 14.8205C43.6565 15.2175 43.7779 15.8981 44.1089 16.8623L44.0261 17.2706C43.8717 17.2706 43.7338 17.4068 43.6124 17.679C44.0648 18.9268 44.2027 19.9704 44.0261 20.8098L43.9765 21.0139C43.9434 21.1841 43.8 21.4563 43.5462 21.8307C43.7779 21.6719 44.3792 20.9005 45.3501 19.5166C46.1444 18.6091 47.4187 17.4521 49.173 16.0455C49.2392 15.762 50.1604 14.9452 51.9367 13.5954C52.9738 12.1321 53.6633 11.3607 54.0054 11.2813C54.0826 11.1452 54.1433 11.0772 54.1874 11.0772C54.1212 10.9297 54.0991 10.8163 54.1212 10.7369C54.3639 10.1924 54.5018 9.85207 54.5349 9.71595C54.6342 9.18282 54.7666 8.63833 54.9321 8.08251C54.9431 7.78758 54.9818 7.49265 55.048 7.19773C55.1804 6.99355 55.2907 6.88011 55.3789 6.85743V6.51713L55.412 6.38101C55.5665 5.64369 55.9747 5.16727 56.6367 4.95174C57.5855 4.4186 58.1041 3.94218 58.1923 3.52248C58.413 3.25024 58.6833 3.11412 59.0032 3.11412H59.0694C59.3232 3.38636 59.6211 3.54517 59.9631 3.59054C60.2058 3.22755 60.4651 3.04606 60.7409 3.04606L60.7078 3.52248C61.116 3.52248 61.4856 3.11412 61.8166 2.2974C61.9711 2.16128 62.1421 2.09322 62.3296 2.09322ZM43.9599 6.10877H44.2247C44.302 6.12011 44.3351 6.16548 44.324 6.24489L44.2578 6.58519L43.9103 6.65325H43.8441C43.8551 6.58519 43.8276 6.49444 43.7614 6.38101L43.7945 6.24489C43.8276 6.15414 43.8827 6.10877 43.9599 6.10877ZM42.8677 7.19773H43.1325V7.53803L43.1159 7.60609C43.0939 7.69684 43.0387 7.74221 42.9504 7.74221H42.6195C42.6415 7.64012 42.6415 7.54937 42.6195 7.46997C42.7188 7.28847 42.8015 7.19773 42.8677 7.19773ZM42.1561 7.40191C42.3216 7.40191 42.4319 7.51534 42.4871 7.74221C42.3878 8.24132 42.1837 8.49087 41.8747 8.49087H41.7423C41.6982 8.49087 41.5989 8.33206 41.4445 8.01445L41.4941 7.74221C41.5272 7.60609 41.7479 7.49265 42.1561 7.40191ZM47.0381 18.0874H47.1043L47.4353 17.7471L47.4518 17.679C47.3856 17.679 47.2477 17.8151 47.0381 18.0874ZM47.6504 25.0295L47.6339 25.1656H47.7001L47.7166 25.0295H47.6504ZM33.1202 28.7047L33.1036 28.8409H33.1698L33.1864 28.7047H33.1202ZM41.2128 29.9298H41.3452C41.6982 29.9298 41.8196 30.2021 41.7092 30.7465C41.5989 30.928 41.4224 31.0188 41.1797 31.0188H40.8487C40.7825 30.7352 40.7549 30.5537 40.7659 30.4743C41.0528 30.1794 41.2017 29.9979 41.2128 29.9298ZM38.7304 31.0868H39.1938V31.3591C39.0945 31.5406 39.0117 31.6313 38.9455 31.6313H38.6145V31.291C38.6807 31.2003 38.7193 31.1322 38.7304 31.0868ZM33.5836 33.537L33.5505 33.6731H33.6167L33.6498 33.537H33.5836Z" fill="white"/>
<path d="M32.21 7.21484H32.4748C32.7506 7.53246 33.0264 7.69126 33.3023 7.69126H33.9642C34.3063 7.69126 34.8358 8.09963 35.553 8.91635H35.6192C35.9281 8.8256 36.1377 8.78023 36.248 8.78023C36.4797 8.78023 36.6342 8.89366 36.7114 9.12053C36.6894 9.22262 36.4963 9.51755 36.1322 10.0053C36.5625 10.9128 36.7335 11.5707 36.6452 11.9791L36.6287 12.1152L36.2811 12.1832H36.1487C35.9612 12.1832 35.7902 12.1379 35.6357 12.0471C35.404 12.1152 35.2661 12.2513 35.222 12.4555C35.6192 12.9092 35.9502 13.1361 36.2149 13.1361C36.2701 12.9546 36.3529 12.8638 36.4632 12.8638H36.8604C37.2465 12.9319 37.4065 13.1134 37.3403 13.4083C37.3293 13.4877 37.1582 13.6919 36.8273 14.0209C37.6106 14.7128 37.7761 16.1421 37.3237 18.3086C37.5444 18.751 37.6271 19.0913 37.572 19.3296C37.0865 20.4299 36.6894 21.4961 36.3804 22.5284C36.1377 22.88 35.884 23.4699 35.6192 24.2979L36.0991 23.9576H36.1653L36.1487 24.0257C35.906 25.2054 34.5379 27.1111 32.0445 29.7428C30.0365 31.5123 28.514 32.5786 27.4769 32.9416C25.6124 33.8717 24.4925 34.3935 24.1174 34.507C23.7533 34.507 23.5492 34.5297 23.5051 34.575C22.4018 34.575 21.1772 34.0986 19.8312 33.1458C18.0328 31.3989 17.4812 28.8353 18.1762 25.455L18.2424 25.1147C18.2976 24.8651 18.3859 24.5475 18.5072 24.1618L18.5238 24.0938H18.4576C17.9942 25.0466 17.7184 25.523 17.6301 25.523L17.5474 25.3188L17.6467 24.7744L18.7555 21.9839C19.0644 20.8949 19.2685 20.3505 19.3678 20.3505L19.434 20.0102C19.2795 19.6585 19.1857 19.477 19.1526 19.4657C19.8367 18.0704 20.1897 17.3218 20.2118 17.2197H19.8808C19.7925 17.2197 19.7539 17.1743 19.765 17.0836L19.7815 17.0155C20.5428 15.7904 21.4695 14.6334 22.5618 13.5444C23.2238 13.1247 23.5823 12.7617 23.6375 12.4555V12.1832C24.0678 11.6161 24.9118 10.9355 26.1695 10.1414C26.5557 9.73307 27.5321 9.27934 29.0988 8.78023C29.6945 8.19037 30.6378 7.89545 31.9287 7.89545L32.0114 7.55514C32.0225 7.4644 32.0942 7.41902 32.2266 7.41902L32.2431 7.35096L32.21 7.21484ZM34.4938 13.1361L34.3945 13.2722L34.9241 13.9528L34.8579 14.225C34.6924 14.2704 34.5986 14.2931 34.5766 14.2931L34.56 14.3612C34.7034 14.554 34.7476 14.7809 34.6924 15.0418L34.6262 15.3821H34.3614C34.0304 14.7241 33.6884 14.1343 33.3354 13.6125C32.7617 13.7032 32.3755 13.7486 32.1769 13.7486C32.0666 13.7486 31.7687 13.5898 31.2833 13.2722C31.206 13.6012 30.4392 14.5313 28.9829 16.0627C28.4975 16.834 27.6369 17.6961 26.4012 18.6489C25.1876 20.0328 24.4594 21.3033 24.2167 22.4603C23.7864 24.2299 23.4279 25.1147 23.141 25.1147L22.7107 25.5911C22.7438 25.7612 22.7107 26.2377 22.6114 27.0203C22.8542 28.2908 23.2789 28.926 23.8857 28.926C24.2829 29.1529 24.6966 29.2663 25.1269 29.2663C25.2704 29.2663 26.0537 29.0168 27.4769 28.5177C28.161 28.5177 28.6961 28.2681 29.0822 27.769C29.6449 27.3947 30.2462 26.7141 30.8861 25.7272C31.2502 24.4908 31.5922 23.6967 31.9121 23.3451C32.9161 21.9158 33.4898 20.8496 33.6333 20.1463C33.7987 19.8287 34.1077 19.511 34.56 19.1934C34.8138 18.8191 34.9848 18.4107 35.073 17.9683C35.1723 17.526 35.2606 16.7773 35.3378 15.7224C35.404 15.643 35.4482 15.5522 35.4702 15.4501H35.6688C35.7129 15.4501 35.8509 15.6316 36.0825 15.9946H36.1487C36.237 15.9946 36.2922 15.9492 36.3142 15.8585C36.1818 14.883 35.7185 14.0209 34.9241 13.2722C34.7917 13.2722 34.6483 13.2268 34.4938 13.1361ZM27.6424 17.1516L27.6093 17.2877C27.6976 17.2877 27.7527 17.2424 27.7748 17.1516H27.6424ZM35.5199 24.7744L35.5033 24.9105H35.5695L35.5861 24.7744H35.5199Z" fill="white"/>
<path d="M19.5999 5.51318C21.9609 5.51318 23.2186 6.64752 23.3731 8.91619C23.4062 9.36993 23.3676 9.95411 23.2572 10.6687C22.838 12.6765 21.652 14.8431 19.6991 17.1685L19.4178 17.3556C19.3626 17.3556 19.1972 17.1628 18.9213 16.7771C18.6455 17.0153 18.1766 17.5201 17.5146 18.2915C17.2609 18.507 17.0513 18.6148 16.8858 18.6148L16.8692 18.4786L16.8858 18.4276C17.4374 17.8718 17.7574 17.3897 17.8456 16.9813H17.7298C16.5272 18.3198 15.7163 18.9891 15.297 18.9891L15.2474 18.87L15.297 18.6658C16.5327 17.5542 17.5202 16.1306 18.2594 14.395L18.2925 14.2079C18.2704 13.9356 18.2759 13.7428 18.309 13.6294C18.5517 13.4138 18.6896 13.2267 18.7227 13.0679L18.7724 12.8126C18.8496 12.4156 18.8827 11.8484 18.8717 11.1111H18.7558C18.7448 11.1678 18.458 11.4628 17.8953 11.9959C17.3436 12.6992 16.9465 13.3288 16.7037 13.8846C16.2955 14.3497 15.8046 14.6446 15.2308 14.7694C14.9661 15.1097 14.602 15.7165 14.1386 16.59C13.6201 17.1345 13.0353 17.9739 12.3844 19.1082C11.8107 19.6186 10.9115 20.7133 9.68684 22.3921C8.80421 22.8458 8.31325 23.2429 8.21395 23.5832C7.54095 24.4906 7.14929 25.2279 7.03896 25.7951L6.87346 26.5438C6.86243 26.6345 6.68039 26.9068 6.32734 27.3605C6.16185 28.1772 5.88051 28.7671 5.48333 29.1301C5.373 29.6519 5.10269 30.0489 4.67241 30.3211L4.65586 30.3892C4.87652 30.5593 4.9372 30.8939 4.8379 31.3931L4.72206 31.9035C4.69999 32.0396 4.52347 32.3913 4.19248 32.9584L4.17593 33.0265H4.24213C4.58415 33.0265 4.99236 32.8166 5.46678 32.3969C6.07358 32.2608 6.79072 31.8638 7.61818 31.2059C7.88297 30.9904 8.64424 30.6728 9.90198 30.253C12.1858 28.5856 13.6807 27.6838 14.3868 27.5477L14.3372 27.7348C13.6752 28.2566 13.2946 28.6139 13.1953 28.8068C13.4711 28.8068 14.1607 28.4324 15.2639 27.6838C16.4665 27.1166 17.5643 26.3566 18.5572 25.4038C19.473 24.9047 20.0577 24.5473 20.3115 24.3318H20.3777C20.4439 24.3545 20.4714 24.3999 20.4604 24.4679L20.4273 24.6551C20.2177 24.6551 19.2523 25.4718 17.5312 27.1053C16.0749 27.9787 15.2639 28.5459 15.0985 28.8068C15.2198 28.8068 15.275 28.8295 15.2639 28.8748C15.6832 28.716 16.2955 28.319 17.1009 27.6838C17.454 27.5703 17.9173 27.2981 18.4911 26.8671C18.5793 26.8217 18.6676 26.799 18.7558 26.799H18.822L18.7724 27.0542C18.5848 27.0542 17.8401 27.6838 16.5382 28.9429C16.119 29.1471 15.8873 29.3739 15.8432 29.6235C15.3908 29.8163 15.126 30.1113 15.0488 30.5083C14.9826 30.8032 14.6516 31.1208 14.0558 31.4611C13.7911 31.6426 13.6145 31.8071 13.5263 31.9546L13.5097 32.0226L13.7083 32.2778L13.6752 32.3969C13.4987 32.4763 13.0519 32.7713 12.3347 33.2817C11.4411 33.6787 10.9667 33.9907 10.9115 34.2176C10.8784 34.399 10.6963 34.5919 10.3654 34.7961C10.2992 35.1023 9.94611 35.3519 9.30621 35.5447C9.26208 35.7489 8.87041 35.9588 8.13121 36.1743C7.60163 36.6734 7.11067 36.9683 6.65832 37.0591C6.50386 37.0591 5.96325 36.8889 5.03649 36.5486C4.2642 36.7641 3.71255 36.8719 3.38157 36.8719H3.13333C2.36103 36.8719 1.71561 36.5203 1.19706 35.817C1.27429 36.1119 1.39566 36.4579 1.56115 36.8549C1.34049 36.7755 1.11983 36.5997 0.899177 36.3274C0.568192 35.8737 0.44683 35.4256 0.535093 34.9832L0.551642 34.9152C0 33.8375 -0.137911 32.6408 0.137911 31.325L0.204108 30.9507C0.270305 30.6671 0.849529 29.1584 1.94178 26.4247C1.97488 26.0617 2.01349 25.7667 2.05763 25.5399L2.10727 25.2847C2.17347 24.967 2.78028 23.7079 3.92769 21.5073C4.00492 21.3485 4.0656 21.1613 4.10974 20.9458L4.12628 20.8778C4.18145 20.6282 4.08767 20.5034 3.84495 20.5034C3.26021 21.2975 2.78579 21.6945 2.42171 21.6945L2.38861 21.5754C2.42171 21.4166 2.94577 20.6396 3.96079 19.2443C4.81032 17.4407 5.46678 16.5389 5.93016 16.5389C6.83485 15.9831 7.34236 15.433 7.45269 14.8885C7.47475 14.7637 7.62921 14.4915 7.91607 14.0717H7.98227C8.0595 14.1625 8.13121 14.2079 8.19741 14.2079C8.71595 14.0944 8.99729 13.9243 9.04142 13.6974C9.33931 13.4705 9.58203 13.1586 9.76959 12.7616C9.78062 12.7276 9.82475 12.4496 9.90198 11.9279C10.3433 11.6329 10.7129 11.2132 11.0108 10.6687C11.3969 10.6574 12.1472 9.98814 13.2615 8.66097C15.3246 6.56244 17.4374 5.51318 19.5999 5.51318ZM17.1175 19.3634H17.2333C17.4209 19.3634 17.465 19.6584 17.3657 20.2482H17.2995C17.123 20.373 16.9685 20.4354 16.8361 20.4354H16.7699C16.5493 20.2879 16.4665 20.1007 16.5217 19.8739C16.5327 19.8172 16.7313 19.647 17.1175 19.3634ZM14.8006 19.8058C14.9771 19.8852 15.0654 19.9703 15.0654 20.061L15.0488 20.1291C14.9385 20.2879 14.8006 20.3673 14.6351 20.3673C14.5468 20.2198 14.5192 20.0724 14.5523 19.9249C14.6627 19.8455 14.7454 19.8058 14.8006 19.8058ZM2.05763 22.5793H2.23967C2.35 22.6246 2.3831 22.7494 2.33896 22.9536L2.32241 23.0217L2.02453 23.0727H1.84249L1.82594 22.8345C1.92523 22.6643 2.00246 22.5793 2.05763 22.5793ZM13.5263 28.1262L13.5097 28.1772C13.598 28.1432 13.6642 28.1262 13.7083 28.1262L13.7249 27.99H13.6752C13.587 28.0014 13.5373 28.0468 13.5263 28.1262ZM5.73156 28.5005L5.69847 28.6196H5.76466L5.79776 28.5005H5.73156Z" fill="white"/>
</svg>
