<svg width="166" height="28" viewBox="0 0 166 28" fill="none" xmlns="http://www.w3.org/2000/svg">
<path d="M14.6369 15.4385C15.6901 15.7009 16.2032 15.839 17.2565 16.129C17.3105 16.5985 17.3105 17.0128 17.3105 17.3442C17.3105 19.1393 16.5543 20.5064 15.069 21.2936C13.5837 22.0807 11.6123 22.1497 9.12783 21.6112C2.9976 20.2717 0 17.5927 0 13.9057C0 12.152 0.864173 10.702 2.64653 9.16922C4.42889 7.63642 6.75135 6.35217 9.64093 5.71696C13.5837 4.8608 15.8252 5.84124 16.3383 8.64447C16.4733 9.39016 16.0142 10.2049 15.2041 10.5777C14.6369 10.8263 14.3669 10.9506 13.8268 11.1853C13.8538 10.6744 13.8808 10.2878 13.8808 10.0116C13.8808 7.47071 12.6385 6.40741 10.154 6.86311C7.53451 7.33262 6.26526 9.79062 6.26526 14.1819C6.26526 17.9518 7.69654 20.1336 10.6131 20.6583C11.8284 20.8793 12.8276 20.6721 13.6377 20.0093C14.4479 19.3327 14.853 18.366 14.853 17.1508C14.853 16.7642 14.799 16.1842 14.6639 15.4385H14.6369Z" fill="white"/>
<path d="M29.6251 2.20947C35.9174 1.3395 39.1311 5.28888 39.1311 13.7538C39.1311 22.2188 35.8634 26.1543 29.4631 25.2706C23.0628 24.3868 19.9032 20.3545 19.9032 13.5329C19.9032 7.0012 23.0898 3.12086 29.6251 2.22328V2.20947ZM29.4631 4.00464C28.2749 4.14273 27.4917 4.90223 27.0596 6.24171C26.6546 7.58118 26.4385 10.0668 26.4385 13.74C26.4385 17.4132 26.6546 19.885 27.0596 21.2383C27.4647 22.5778 28.2749 23.3373 29.4631 23.4754C30.6514 23.6135 31.4615 23.0197 31.8666 21.6802C32.2717 20.3407 32.4877 17.6756 32.4877 13.74C32.4877 9.80444 32.2717 7.1531 31.8666 5.81363C31.4615 4.46034 30.6514 3.86655 29.4631 4.00464Z" fill="white"/>
<path d="M62.4367 2.63754C62.4367 11.5306 62.4367 15.9909 62.4367 24.8839C62.4367 26.2924 61.5185 27.4109 60.3573 27.3833C59.5201 27.3557 59.1151 27.3419 58.2779 27.3143C57.1437 27.2729 56.1985 26.1129 56.1985 24.7182V8.47876C54.6322 15.2728 53.849 18.6422 52.3097 25.2291C52.0667 26.2924 51.2565 26.9829 50.3113 26.9276C50.1223 26.9276 50.0412 26.9138 49.8522 26.9C48.934 26.8448 48.1239 26.0715 47.8808 25.022C46.2875 18.5041 45.5043 15.3004 43.911 9.08636V26.4719C43.0468 26.4029 42.6148 26.3615 41.7776 26.2786V3.59036C41.7776 2.30612 42.6958 1.17378 43.83 1.07712C44.9912 0.980456 45.5583 0.939029 46.6926 0.856174C47.6108 0.787129 48.4209 1.44996 48.664 2.48564C49.2041 4.73651 49.4741 5.88266 50.0412 8.16115C50.6084 10.5225 53.4439 10.4949 54.011 8.06449C54.5512 5.71695 54.8212 4.52938 55.3883 2.15422C55.6314 1.06331 56.4415 0.276195 57.3867 0.248577C58.575 0.20715 59.1691 0.179532 60.3573 0.151914C61.4915 0.124296 62.4367 1.24283 62.4367 2.65135V2.63754Z" fill="white"/>
<path d="M66.2444 24.9391C66.2444 16.0047 66.2444 11.5305 66.2444 2.58229C66.2444 1.15996 67.1626 0 68.3238 0C71.3214 0 72.8337 -2.59901e-08 75.8313 0.0690452C81.2594 0.179517 83.96 2.96894 83.96 8.23019C83.96 13.5329 80.9624 16.2256 74.9131 16.2394C74.022 16.2394 73.5629 16.2394 72.6717 16.2394C72.6717 19.7193 72.6717 21.4592 72.6717 24.9253C72.6717 26.3476 71.7535 27.5076 70.5923 27.5076C69.6741 27.5076 69.215 27.5076 68.2968 27.5076C67.1626 27.5076 66.2174 26.3476 66.2174 24.9253L66.2444 24.9391ZM72.6987 13.7124C73.2658 13.7124 73.5629 13.7124 74.157 13.7124C76.5065 13.7124 77.6677 11.8067 77.6677 7.99543C77.6677 4.41889 76.5065 2.60991 74.157 2.58229C73.5899 2.58229 73.2928 2.58229 72.6987 2.56848C72.6987 7.0288 72.6987 9.26586 72.6987 13.7262V13.7124Z" fill="white"/>
<path d="M96.5171 2.91373C98.5155 11.2406 99.4877 15.2866 101.486 22.9783C101.837 24.3868 100.865 25.9058 99.5147 26.0439C98.6505 26.1267 98.2455 26.1681 97.3813 26.251C96.4631 26.3339 95.6529 25.6986 95.4099 24.6906C95.2209 23.9035 95.1128 23.503 94.9238 22.7021C94.6807 21.6802 93.8706 21.0036 92.9524 21.045C91.5481 21.1002 90.846 21.1417 89.4147 21.1831C88.4965 21.2107 87.6863 21.9702 87.4433 23.0197C87.0652 24.6215 86.8492 25.4225 86.4711 27.0381C85.4719 27.0934 84.9588 27.121 83.9596 27.1624C86.4171 17.0266 87.6323 12.0415 90.0628 2.43041C90.3329 1.40855 91.116 0.75952 92.0342 0.828566C93.0334 0.897611 93.5465 0.939038 94.5457 1.02189C95.4639 1.09094 96.2741 1.87805 96.5171 2.91373ZM91.224 18.5041C92.5743 18.4627 93.5465 16.9575 93.2225 15.4385C92.4663 12.0967 92.0882 10.412 91.3051 7.0012C90.4949 10.343 90.0628 12.0277 89.2527 15.4385C88.8746 17.0128 89.8738 18.5456 91.224 18.5179V18.5041Z" fill="white"/>
<path d="M103.89 23.3787C103.89 15.6871 103.89 11.8482 103.89 4.15654C103.89 2.94135 104.808 2.05757 105.915 2.18185C108.832 2.54089 110.29 2.73421 113.207 3.16229C115.61 3.52133 117.528 4.32225 118.959 5.44079C120.39 6.55932 121.092 7.81594 121.092 9.29351C121.092 11.5582 119.58 12.9667 116.502 13.6986C118.068 14.251 119.094 14.8171 119.553 15.4247C120.012 16.0323 120.336 17.2337 120.498 18.9874C120.579 19.8022 120.687 20.5064 120.822 21.1002C121.065 22.1221 120.093 23.2683 118.878 23.4754C117.933 23.6411 117.447 23.7101 116.475 23.862C115.529 24.0139 114.692 23.5306 114.53 22.6607C114.395 22.0392 114.341 21.3488 114.341 20.5755C114.341 20.0784 114.341 19.8298 114.314 19.3465C114.314 18.7251 114.314 18.4075 114.287 17.7861C114.287 15.3833 113.288 14.1819 111.289 14.1957C110.857 14.1957 110.641 14.1957 110.209 14.1957C110.209 17.6065 110.209 19.3189 110.209 22.7435C110.209 23.8759 109.318 24.9253 108.184 25.0772C107.293 25.1877 106.834 25.2429 105.942 25.3534C104.835 25.4915 103.917 24.6077 103.917 23.3925L103.89 23.3787ZM110.182 12.3729C110.695 12.3729 110.938 12.3729 111.452 12.4005C113.828 12.442 114.989 11.282 114.989 8.90685C114.989 6.5317 113.801 5.19222 111.452 4.92985C110.938 4.87461 110.695 4.847 110.182 4.79176C110.182 7.82975 110.182 9.34874 110.182 12.3867V12.3729Z" fill="white"/>
<path d="M137.647 7.92639V9.10016C135.486 8.67208 134.379 8.46494 132.192 8.07829C131.111 7.88496 130.247 8.36828 130.247 9.14159V10.8815C130.247 11.6548 131.111 12.3177 132.192 12.3729C133.92 12.4419 134.757 12.4834 136.458 12.5662V13.7952C134.757 13.7952 133.893 13.7952 132.192 13.7952C131.111 13.7952 130.247 14.4304 130.247 15.2038V18.366C130.247 19.1393 131.111 19.6226 132.192 19.4293C134.892 18.946 136.215 18.6974 138.889 18.1589V19.2636C133.866 20.534 131.327 21.1002 126.142 22.1221C125.062 22.3292 124.171 21.7769 124.171 20.8655C124.171 15.1761 124.171 12.3177 124.171 6.62834C124.171 5.73075 125.062 5.16458 126.142 5.37172C130.814 6.28312 133.11 6.79405 137.647 7.91258V7.92639Z" fill="white"/>
<path d="M144.889 10.5C144.889 4.70101 149.59 0 155.389 0C161.188 0 165.889 4.70101 165.889 10.5C165.889 16.299 161.188 21 155.389 21H144.889V10.5Z" fill="#007BFF"/>
</svg>
