<svg width="27" height="26" viewBox="0 0 27 26" fill="none" xmlns="http://www.w3.org/2000/svg">
<path d="M6.05132 23.2988C5.44021 23.2988 4.91706 23.0812 4.48188 22.6461C4.04669 22.2109 3.8291 21.6877 3.8291 21.0766V5.52105C3.8291 4.90994 4.04669 4.38679 4.48188 3.95161C4.91706 3.51642 5.44021 3.29883 6.05132 3.29883H21.6069C22.218 3.29883 22.7411 3.51642 23.1763 3.95161C23.6115 4.38679 23.8291 4.90994 23.8291 5.52105V21.0766C23.8291 21.6877 23.6115 22.2109 23.1763 22.6461C22.7411 23.0812 22.218 23.2988 21.6069 23.2988H6.05132ZM6.05132 21.0766H21.6069V5.52105H6.05132V21.0766ZM7.16243 18.8544H20.4958L16.3291 13.2988L12.9958 17.7433L10.4958 14.4099L7.16243 18.8544Z" fill="white"/>
</svg>
