<svg width="33" height="32" viewBox="0 0 33 32" fill="none" xmlns="http://www.w3.org/2000/svg">
<path d="M14.4887 4.7998C16.127 4.7997 17.7327 5.2569 19.1252 6.11992C20.5176 6.98295 21.6416 8.21754 22.3704 9.6847C23.0992 11.1519 23.4041 12.7934 23.2506 14.4244C23.0971 16.0554 22.4913 17.6112 21.5015 18.9166L28.1367 25.5518C28.3495 25.7662 28.4735 26.0529 28.4841 26.3548C28.4948 26.6566 28.3912 26.9514 28.1941 27.1802C27.9969 27.409 27.7208 27.5551 27.4207 27.5893C27.1206 27.6235 26.8187 27.5432 26.5751 27.3646L26.4407 27.2478L19.8055 20.6126C18.6928 21.4561 17.3954 22.0227 16.0205 22.2656C14.6455 22.5085 13.2325 22.4208 11.8981 22.0096C10.5638 21.5985 9.34641 20.8757 8.34662 19.901C7.34683 18.9264 6.59332 17.7278 6.14833 16.4044C5.70334 15.0809 5.57966 13.6706 5.78749 12.2899C5.99533 10.9092 6.52873 9.59776 7.34361 8.46396C8.15849 7.33016 9.23146 6.40654 10.4739 5.76941C11.7163 5.13227 13.0925 4.79992 14.4887 4.7998ZM14.4887 7.1998C12.7913 7.1998 11.1635 7.87409 9.96324 9.07432C8.76301 10.2746 8.08873 11.9024 8.08873 13.5998C8.08873 15.2972 8.76301 16.9251 9.96324 18.1253C11.1635 19.3255 12.7913 19.9998 14.4887 19.9998C16.1861 19.9998 17.814 19.3255 19.0142 18.1253C20.2144 16.9251 20.8887 15.2972 20.8887 13.5998C20.8887 11.9024 20.2144 10.2746 19.0142 9.07432C17.814 7.87409 16.1861 7.1998 14.4887 7.1998Z" fill="white"/>
</svg>
