<svg width="24" height="23" viewBox="0 0 24 23" fill="none" xmlns="http://www.w3.org/2000/svg">
<path d="M11.5245 0.807766C11.6741 0.347111 12.3259 0.347108 12.4755 0.807764L14.8064 7.98153C14.8734 8.18754 15.0653 8.32702 15.282 8.32702H22.8249C23.3093 8.32702 23.5106 8.94683 23.1188 9.23153L17.0164 13.6652C16.8412 13.7925 16.7678 14.0182 16.8348 14.2242L19.1657 21.3979C19.3154 21.8586 18.7881 22.2416 18.3963 21.9569L12.2939 17.5233C12.1186 17.396 11.8814 17.396 11.7061 17.5233L5.60374 21.9569C5.21189 22.2416 4.68464 21.8586 4.83432 21.3979L7.16522 14.2242C7.23215 14.0182 7.15882 13.7925 6.98358 13.6652L0.881216 9.23153C0.489359 8.94683 0.690746 8.32702 1.17511 8.32702H8.71805C8.93466 8.32702 9.12664 8.18754 9.19357 7.98153L11.5245 0.807766Z" fill="#FFD859"/>
</svg>
