<svg width="33" height="32" viewBox="0 0 33 32" fill="none" xmlns="http://www.w3.org/2000/svg">
<path fill-rule="evenodd" clip-rule="evenodd" d="M8.41017 20.855C9.5979 19.6673 11.2088 19 12.8885 19H20.8885C22.5682 19 24.1791 19.6673 25.3668 20.855C26.5546 22.0427 27.2218 23.6536 27.2218 25.3333V28C27.2218 28.5523 26.7741 29 26.2218 29C25.6696 29 25.2218 28.5523 25.2218 28V25.3333C25.2218 24.1841 24.7653 23.0819 23.9526 22.2692C23.14 21.4565 22.0378 21 20.8885 21H12.8885C11.7392 21 10.637 21.4565 9.82438 22.2692C9.01172 23.0819 8.55518 24.1841 8.55518 25.3333V28C8.55518 28.5523 8.10746 29 7.55518 29C7.00289 29 6.55518 28.5523 6.55518 28V25.3333C6.55518 23.6536 7.22244 22.0427 8.41017 20.855Z" fill="white"/>
<path fill-rule="evenodd" clip-rule="evenodd" d="M16.8885 5C14.4953 5 12.5552 6.9401 12.5552 9.33333C12.5552 11.7266 14.4953 13.6667 16.8885 13.6667C19.2817 13.6667 21.2218 11.7266 21.2218 9.33333C21.2218 6.9401 19.2817 5 16.8885 5ZM10.5552 9.33333C10.5552 5.83553 13.3907 3 16.8885 3C20.3863 3 23.2218 5.83553 23.2218 9.33333C23.2218 12.8311 20.3863 15.6667 16.8885 15.6667C13.3907 15.6667 10.5552 12.8311 10.5552 9.33333Z" fill="white"/>
</svg>
